<svg width="213" height="23" viewBox="0 0 213 23" fill="none" xmlns="http://www.w3.org/2000/svg">
<path d="M2.80859 6.85547C3.76953 5.67578 5.01953 5.08594 6.55859 5.08594C9.23828 5.08594 10.5898 6.59766 10.6133 9.62109V18H8.44531V9.60938C8.4375 8.69531 8.22656 8.01953 7.8125 7.58203C7.40625 7.14453 6.76953 6.92578 5.90234 6.92578C5.19922 6.92578 4.58203 7.11328 4.05078 7.48828C3.51953 7.86328 3.10547 8.35547 2.80859 8.96484V18H0.640625V0H2.80859V6.85547ZM16.2148 18H14.0469V5.32031H16.2148V18ZM13.8711 1.95703C13.8711 1.60547 13.9766 1.30859 14.1875 1.06641C14.4062 0.824219 14.7266 0.703125 15.1484 0.703125C15.5703 0.703125 15.8906 0.824219 16.1094 1.06641C16.3281 1.30859 16.4375 1.60547 16.4375 1.95703C16.4375 2.30859 16.3281 2.60156 16.1094 2.83594C15.8906 3.07031 15.5703 3.1875 15.1484 3.1875C14.7266 3.1875 14.4062 3.07031 14.1875 2.83594C13.9766 2.60156 13.8711 2.30859 13.8711 1.95703ZM21.8633 6.85547C22.8242 5.67578 24.0742 5.08594 25.6133 5.08594C28.293 5.08594 29.6445 6.59766 29.668 9.62109V18H27.5V9.60938C27.4922 8.69531 27.2812 8.01953 26.8672 7.58203C26.4609 7.14453 25.8242 6.92578 24.957 6.92578C24.2539 6.92578 23.6367 7.11328 23.1055 7.48828C22.5742 7.86328 22.1602 8.35547 21.8633 8.96484V18H19.6953V0H21.8633V6.85547ZM35.2695 18H33.1016V5.32031H35.2695V18ZM32.9258 1.95703C32.9258 1.60547 33.0312 1.30859 33.2422 1.06641C33.4609 0.824219 33.7812 0.703125 34.2031 0.703125C34.625 0.703125 34.9453 0.824219 35.1641 1.06641C35.3828 1.30859 35.4922 1.60547 35.4922 1.95703C35.4922 2.30859 35.3828 2.60156 35.1641 2.83594C34.9453 3.07031 34.625 3.1875 34.2031 3.1875C33.7812 3.1875 33.4609 3.07031 33.2422 2.83594C33.0312 2.60156 32.9258 2.30859 32.9258 1.95703ZM52.5312 18C52.4062 17.75 52.3047 17.3047 52.2266 16.6641C51.2188 17.7109 50.0156 18.2344 48.6172 18.2344C47.3672 18.2344 46.3398 17.8828 45.5352 17.1797C44.7383 16.4688 44.3398 15.5703 44.3398 14.4844C44.3398 13.1641 44.8398 12.1406 45.8398 11.4141C46.8477 10.6797 48.2617 10.3125 50.082 10.3125H52.1914V9.31641C52.1914 8.55859 51.9648 7.95703 51.5117 7.51172C51.0586 7.05859 50.3906 6.83203 49.5078 6.83203C48.7344 6.83203 48.0859 7.02734 47.5625 7.41797C47.0391 7.80859 46.7773 8.28125 46.7773 8.83594H44.5977C44.5977 8.20312 44.8203 7.59375 45.2656 7.00781C45.7188 6.41406 46.3281 5.94531 47.0938 5.60156C47.8672 5.25781 48.7148 5.08594 49.6367 5.08594C51.0977 5.08594 52.2422 5.45312 53.0703 6.1875C53.8984 6.91406 54.3281 7.91797 54.3594 9.19922V15.0352C54.3594 16.1992 54.5078 17.125 54.8047 17.8125V18H52.5312ZM48.9336 16.3477C49.6133 16.3477 50.2578 16.1719 50.8672 15.8203C51.4766 15.4688 51.918 15.0117 52.1914 14.4492V11.8477H50.4922C47.8359 11.8477 46.5078 12.625 46.5078 14.1797C46.5078 14.8594 46.7344 15.3906 47.1875 15.7734C47.6406 16.1562 48.2227 16.3477 48.9336 16.3477ZM57.2305 11.5547C57.2305 9.60938 57.6914 8.04688 58.6133 6.86719C59.5352 5.67969 60.7422 5.08594 62.2344 5.08594C63.7188 5.08594 64.8945 5.59375 65.7617 6.60938V0H67.9297V18H65.9375L65.832 16.6406C64.9648 17.7031 63.7578 18.2344 62.2109 18.2344C60.7422 18.2344 59.543 17.6328 58.6133 16.4297C57.6914 15.2266 57.2305 13.6562 57.2305 11.7188V11.5547ZM59.3984 11.8008C59.3984 13.2383 59.6953 14.3633 60.2891 15.1758C60.8828 15.9883 61.7031 16.3945 62.75 16.3945C64.125 16.3945 65.1289 15.7773 65.7617 14.543V8.71875C65.1133 7.52344 64.1172 6.92578 62.7734 6.92578C61.7109 6.92578 60.8828 7.33594 60.2891 8.15625C59.6953 8.97656 59.3984 10.1914 59.3984 11.8008ZM79.1328 18C79.0078 17.75 78.9062 17.3047 78.8281 16.6641C77.8203 17.7109 76.6172 18.2344 75.2188 18.2344C73.9688 18.2344 72.9414 17.8828 72.1367 17.1797C71.3398 16.4688 70.9414 15.5703 70.9414 14.4844C70.9414 13.1641 71.4414 12.1406 72.4414 11.4141C73.4492 10.6797 74.8633 10.3125 76.6836 10.3125H78.793V9.31641C78.793 8.55859 78.5664 7.95703 78.1133 7.51172C77.6602 7.05859 76.9922 6.83203 76.1094 6.83203C75.3359 6.83203 74.6875 7.02734 74.1641 7.41797C73.6406 7.80859 73.3789 8.28125 73.3789 8.83594H71.1992C71.1992 8.20312 71.4219 7.59375 71.8672 7.00781C72.3203 6.41406 72.9297 5.94531 73.6953 5.60156C74.4688 5.25781 75.3164 5.08594 76.2383 5.08594C77.6992 5.08594 78.8438 5.45312 79.6719 6.1875C80.5 6.91406 80.9297 7.91797 80.9609 9.19922V15.0352C80.9609 16.1992 81.1094 17.125 81.4062 17.8125V18H79.1328ZM75.5352 16.3477C76.2148 16.3477 76.8594 16.1719 77.4688 15.8203C78.0781 15.4688 78.5195 15.0117 78.793 14.4492V11.8477H77.0938C74.4375 11.8477 73.1094 12.625 73.1094 14.1797C73.1094 14.8594 73.3359 15.3906 73.7891 15.7734C74.2422 16.1562 74.8242 16.3477 75.5352 16.3477ZM101.023 11.8008C101.023 13.7305 100.582 15.2852 99.6992 16.4648C98.8164 17.6445 97.6211 18.2344 96.1133 18.2344C94.5742 18.2344 93.3633 17.7461 92.4805 16.7695V22.875H90.3125V5.32031H92.293L92.3984 6.72656C93.2812 5.63281 94.5078 5.08594 96.0781 5.08594C97.6016 5.08594 98.8047 5.66016 99.6875 6.80859C100.578 7.95703 101.023 9.55469 101.023 11.6016V11.8008ZM98.8555 11.5547C98.8555 10.125 98.5508 8.99609 97.9414 8.16797C97.332 7.33984 96.4961 6.92578 95.4336 6.92578C94.1211 6.92578 93.1367 7.50781 92.4805 8.67188V14.7305C93.1289 15.8867 94.1211 16.4648 95.457 16.4648C96.4961 16.4648 97.3203 16.0547 97.9297 15.2344C98.5469 14.4062 98.8555 13.1797 98.8555 11.5547ZM111.617 18C111.492 17.75 111.391 17.3047 111.312 16.6641C110.305 17.7109 109.102 18.2344 107.703 18.2344C106.453 18.2344 105.426 17.8828 104.621 17.1797C103.824 16.4688 103.426 15.5703 103.426 14.4844C103.426 13.1641 103.926 12.1406 104.926 11.4141C105.934 10.6797 107.348 10.3125 109.168 10.3125H111.277V9.31641C111.277 8.55859 111.051 7.95703 110.598 7.51172C110.145 7.05859 109.477 6.83203 108.594 6.83203C107.82 6.83203 107.172 7.02734 106.648 7.41797C106.125 7.80859 105.863 8.28125 105.863 8.83594H103.684C103.684 8.20312 103.906 7.59375 104.352 7.00781C104.805 6.41406 105.414 5.94531 106.18 5.60156C106.953 5.25781 107.801 5.08594 108.723 5.08594C110.184 5.08594 111.328 5.45312 112.156 6.1875C112.984 6.91406 113.414 7.91797 113.445 9.19922V15.0352C113.445 16.1992 113.594 17.125 113.891 17.8125V18H111.617ZM108.02 16.3477C108.699 16.3477 109.344 16.1719 109.953 15.8203C110.562 15.4688 111.004 15.0117 111.277 14.4492V11.8477H109.578C106.922 11.8477 105.594 12.625 105.594 14.1797C105.594 14.8594 105.82 15.3906 106.273 15.7734C106.727 16.1562 107.309 16.3477 108.02 16.3477ZM118.883 5.32031L118.941 6.72656C119.871 5.63281 121.125 5.08594 122.703 5.08594C124.477 5.08594 125.684 5.76562 126.324 7.125C126.746 6.51562 127.293 6.02344 127.965 5.64844C128.645 5.27344 129.445 5.08594 130.367 5.08594C133.148 5.08594 134.562 6.55859 134.609 9.50391V18H132.441V9.63281C132.441 8.72656 132.234 8.05078 131.82 7.60547C131.406 7.15234 130.711 6.92578 129.734 6.92578C128.93 6.92578 128.262 7.16797 127.73 7.65234C127.199 8.12891 126.891 8.77344 126.805 9.58594V18H124.625V9.69141C124.625 7.84766 123.723 6.92578 121.918 6.92578C120.496 6.92578 119.523 7.53125 119 8.74219V18H116.832V5.32031H118.883ZM145.719 16.7461C144.875 17.7383 143.637 18.2344 142.004 18.2344C140.652 18.2344 139.621 17.8438 138.91 17.0625C138.207 16.2734 137.852 15.1094 137.844 13.5703V5.32031H140.012V13.5117C140.012 15.4336 140.793 16.3945 142.355 16.3945C144.012 16.3945 145.113 15.7773 145.66 14.543V5.32031H147.828V18H145.766L145.719 16.7461ZM153.184 5.32031L153.254 6.91406C154.223 5.69531 155.488 5.08594 157.051 5.08594C159.73 5.08594 161.082 6.59766 161.105 9.62109V18H158.938V9.60938C158.93 8.69531 158.719 8.01953 158.305 7.58203C157.898 7.14453 157.262 6.92578 156.395 6.92578C155.691 6.92578 155.074 7.11328 154.543 7.48828C154.012 7.86328 153.598 8.35547 153.301 8.96484V18H151.133V5.32031H153.184ZM163.859 11.5547C163.859 9.57812 164.316 8.00781 165.23 6.84375C166.145 5.67188 167.355 5.08594 168.863 5.08594C170.41 5.08594 171.617 5.63281 172.484 6.72656L172.59 5.32031H174.57V17.6953C174.57 19.3359 174.082 20.6289 173.105 21.5742C172.137 22.5195 170.832 22.9922 169.191 22.9922C168.277 22.9922 167.383 22.7969 166.508 22.4062C165.633 22.0156 164.965 21.4805 164.504 20.8008L165.629 19.5C166.559 20.6484 167.695 21.2227 169.039 21.2227C170.094 21.2227 170.914 20.9258 171.5 20.332C172.094 19.7383 172.391 18.9023 172.391 17.8242V16.7344C171.523 17.7344 170.34 18.2344 168.84 18.2344C167.355 18.2344 166.152 17.6367 165.23 16.4414C164.316 15.2461 163.859 13.6172 163.859 11.5547ZM166.039 11.8008C166.039 13.2305 166.332 14.3555 166.918 15.1758C167.504 15.9883 168.324 16.3945 169.379 16.3945C170.746 16.3945 171.75 15.7734 172.391 14.5312V8.74219C171.727 7.53125 170.73 6.92578 169.402 6.92578C168.348 6.92578 167.523 7.33594 166.93 8.15625C166.336 8.97656 166.039 10.1914 166.039 11.8008ZM181.391 12.1289L180.031 13.5469V18H177.863V0H180.031V10.8867L181.191 9.49219L185.141 5.32031H187.777L182.844 10.6172L188.352 18H185.809L181.391 12.1289ZM197.844 18C197.719 17.75 197.617 17.3047 197.539 16.6641C196.531 17.7109 195.328 18.2344 193.93 18.2344C192.68 18.2344 191.652 17.8828 190.848 17.1797C190.051 16.4688 189.652 15.5703 189.652 14.4844C189.652 13.1641 190.152 12.1406 191.152 11.4141C192.16 10.6797 193.574 10.3125 195.395 10.3125H197.504V9.31641C197.504 8.55859 197.277 7.95703 196.824 7.51172C196.371 7.05859 195.703 6.83203 194.82 6.83203C194.047 6.83203 193.398 7.02734 192.875 7.41797C192.352 7.80859 192.09 8.28125 192.09 8.83594H189.91C189.91 8.20312 190.133 7.59375 190.578 7.00781C191.031 6.41406 191.641 5.94531 192.406 5.60156C193.18 5.25781 194.027 5.08594 194.949 5.08594C196.41 5.08594 197.555 5.45312 198.383 6.1875C199.211 6.91406 199.641 7.91797 199.672 9.19922V15.0352C199.672 16.1992 199.82 17.125 200.117 17.8125V18H197.844ZM194.246 16.3477C194.926 16.3477 195.57 16.1719 196.18 15.8203C196.789 15.4688 197.23 15.0117 197.504 14.4492V11.8477H195.805C193.148 11.8477 191.82 12.625 191.82 14.1797C191.82 14.8594 192.047 15.3906 192.5 15.7734C192.953 16.1562 193.535 16.3477 194.246 16.3477ZM210.453 14.6367C210.453 14.0508 210.23 13.5977 209.785 13.2773C209.348 12.9492 208.578 12.668 207.477 12.4336C206.383 12.1992 205.512 11.918 204.863 11.5898C204.223 11.2617 203.746 10.8711 203.434 10.418C203.129 9.96484 202.977 9.42578 202.977 8.80078C202.977 7.76172 203.414 6.88281 204.289 6.16406C205.172 5.44531 206.297 5.08594 207.664 5.08594C209.102 5.08594 210.266 5.45703 211.156 6.19922C212.055 6.94141 212.504 7.89062 212.504 9.04688H210.324C210.324 8.45312 210.07 7.94141 209.562 7.51172C209.062 7.08203 208.43 6.86719 207.664 6.86719C206.875 6.86719 206.258 7.03906 205.812 7.38281C205.367 7.72656 205.145 8.17578 205.145 8.73047C205.145 9.25391 205.352 9.64844 205.766 9.91406C206.18 10.1797 206.926 10.4336 208.004 10.6758C209.09 10.918 209.969 11.207 210.641 11.543C211.312 11.8789 211.809 12.2852 212.129 12.7617C212.457 13.2305 212.621 13.8047 212.621 14.4844C212.621 15.6172 212.168 16.5273 211.262 17.2148C210.355 17.8945 209.18 18.2344 207.734 18.2344C206.719 18.2344 205.82 18.0547 205.039 17.6953C204.258 17.3359 203.645 16.8359 203.199 16.1953C202.762 15.5469 202.543 14.8477 202.543 14.0977H204.711C204.75 14.8242 205.039 15.4023 205.578 15.832C206.125 16.2539 206.844 16.4648 207.734 16.4648C208.555 16.4648 209.211 16.3008 209.703 15.9727C210.203 15.6367 210.453 15.1914 210.453 14.6367Z" fill="black"/>
</svg>
